<mxfile host="app.diagrams.net" modified="2023-03-15T07:59:02.388Z" agent="5.0 (Macintosh; Intel Mac OS X 10_15_7) AppleWebKit/537.36 (KHTML, like Gecko) Chrome/111.0.0.0 Safari/537.36" etag="8xynqDh5OVhsF2inX5bX" version="21.0.6" type="github">
  <diagram name="第 1 页" id="cNgy0wewGjVmfVbXicGx">
    <mxGraphModel dx="1026" dy="661" grid="1" gridSize="10" guides="1" tooltips="1" connect="1" arrows="1" fold="1" page="1" pageScale="1" pageWidth="827" pageHeight="1169" math="0" shadow="0">
      <root>
        <mxCell id="0" />
        <mxCell id="1" parent="0" />
        <mxCell id="tNF3bG6NbCHJoMOG7UJe-38" value="" style="rounded=0;whiteSpace=wrap;html=1;" vertex="1" parent="1">
          <mxGeometry x="10" y="60" width="820" height="450" as="geometry" />
        </mxCell>
        <mxCell id="tNF3bG6NbCHJoMOG7UJe-18" style="edgeStyle=orthogonalEdgeStyle;rounded=0;orthogonalLoop=1;jettySize=auto;html=1;exitX=0.5;exitY=1;exitDx=0;exitDy=0;" edge="1" parent="1" source="tNF3bG6NbCHJoMOG7UJe-2">
          <mxGeometry relative="1" as="geometry">
            <mxPoint x="90" y="240" as="targetPoint" />
          </mxGeometry>
        </mxCell>
        <mxCell id="tNF3bG6NbCHJoMOG7UJe-2" value="数据结构模块" style="rounded=1;whiteSpace=wrap;html=1;" vertex="1" parent="1">
          <mxGeometry x="30" y="130" width="120" height="60" as="geometry" />
        </mxCell>
        <mxCell id="tNF3bG6NbCHJoMOG7UJe-19" style="edgeStyle=orthogonalEdgeStyle;rounded=0;orthogonalLoop=1;jettySize=auto;html=1;exitX=1;exitY=0.5;exitDx=0;exitDy=0;entryX=0;entryY=0.5;entryDx=0;entryDy=0;" edge="1" parent="1" source="tNF3bG6NbCHJoMOG7UJe-3" target="tNF3bG6NbCHJoMOG7UJe-4">
          <mxGeometry relative="1" as="geometry" />
        </mxCell>
        <mxCell id="tNF3bG6NbCHJoMOG7UJe-3" value="存储对象模块" style="rounded=1;whiteSpace=wrap;html=1;" vertex="1" parent="1">
          <mxGeometry x="30" y="240" width="120" height="60" as="geometry" />
        </mxCell>
        <mxCell id="tNF3bG6NbCHJoMOG7UJe-24" style="edgeStyle=orthogonalEdgeStyle;rounded=0;orthogonalLoop=1;jettySize=auto;html=1;exitX=1;exitY=0.5;exitDx=0;exitDy=0;" edge="1" parent="1" source="tNF3bG6NbCHJoMOG7UJe-4" target="tNF3bG6NbCHJoMOG7UJe-5">
          <mxGeometry relative="1" as="geometry" />
        </mxCell>
        <mxCell id="tNF3bG6NbCHJoMOG7UJe-4" value="数据库模块" style="rounded=1;whiteSpace=wrap;html=1;" vertex="1" parent="1">
          <mxGeometry x="210" y="240" width="120" height="60" as="geometry" />
        </mxCell>
        <mxCell id="tNF3bG6NbCHJoMOG7UJe-5" value="服务端模块" style="rounded=1;whiteSpace=wrap;html=1;" vertex="1" parent="1">
          <mxGeometry x="460" y="205" width="130" height="210" as="geometry" />
        </mxCell>
        <mxCell id="tNF3bG6NbCHJoMOG7UJe-6" value="客户端模块" style="rounded=1;whiteSpace=wrap;html=1;" vertex="1" parent="1">
          <mxGeometry x="475" y="345" width="100" height="50" as="geometry" />
        </mxCell>
        <mxCell id="tNF3bG6NbCHJoMOG7UJe-25" style="edgeStyle=orthogonalEdgeStyle;rounded=0;orthogonalLoop=1;jettySize=auto;html=1;exitX=1;exitY=0.5;exitDx=0;exitDy=0;" edge="1" parent="1" source="tNF3bG6NbCHJoMOG7UJe-8" target="tNF3bG6NbCHJoMOG7UJe-5">
          <mxGeometry relative="1" as="geometry" />
        </mxCell>
        <mxCell id="tNF3bG6NbCHJoMOG7UJe-8" value="网络套接字" style="rounded=0;whiteSpace=wrap;html=1;" vertex="1" parent="1">
          <mxGeometry x="210" y="335" width="120" height="60" as="geometry" />
        </mxCell>
        <mxCell id="tNF3bG6NbCHJoMOG7UJe-12" style="edgeStyle=orthogonalEdgeStyle;rounded=0;orthogonalLoop=1;jettySize=auto;html=1;exitX=1;exitY=0.75;exitDx=0;exitDy=0;entryX=0;entryY=0.75;entryDx=0;entryDy=0;" edge="1" parent="1" source="tNF3bG6NbCHJoMOG7UJe-9" target="tNF3bG6NbCHJoMOG7UJe-10">
          <mxGeometry relative="1" as="geometry" />
        </mxCell>
        <mxCell id="tNF3bG6NbCHJoMOG7UJe-32" style="edgeStyle=orthogonalEdgeStyle;rounded=0;orthogonalLoop=1;jettySize=auto;html=1;exitX=0;exitY=0.25;exitDx=0;exitDy=0;entryX=1;entryY=0.429;entryDx=0;entryDy=0;entryPerimeter=0;" edge="1" parent="1" source="tNF3bG6NbCHJoMOG7UJe-9" target="tNF3bG6NbCHJoMOG7UJe-5">
          <mxGeometry relative="1" as="geometry" />
        </mxCell>
        <mxCell id="tNF3bG6NbCHJoMOG7UJe-9" value="入口执行模块" style="rounded=1;whiteSpace=wrap;html=1;" vertex="1" parent="1">
          <mxGeometry x="640" y="280" width="120" height="60" as="geometry" />
        </mxCell>
        <mxCell id="tNF3bG6NbCHJoMOG7UJe-11" style="edgeStyle=orthogonalEdgeStyle;rounded=0;orthogonalLoop=1;jettySize=auto;html=1;exitX=0;exitY=0.25;exitDx=0;exitDy=0;entryX=1;entryY=0.25;entryDx=0;entryDy=0;" edge="1" parent="1" source="tNF3bG6NbCHJoMOG7UJe-10" target="tNF3bG6NbCHJoMOG7UJe-9">
          <mxGeometry relative="1" as="geometry">
            <mxPoint x="770" y="294.83333333333337" as="targetPoint" />
          </mxGeometry>
        </mxCell>
        <mxCell id="tNF3bG6NbCHJoMOG7UJe-10" value="客户进程" style="rounded=0;whiteSpace=wrap;html=1;" vertex="1" parent="1">
          <mxGeometry x="870" y="280" width="120" height="60" as="geometry" />
        </mxCell>
        <mxCell id="tNF3bG6NbCHJoMOG7UJe-13" value="数据库操作指令" style="text;html=1;align=center;verticalAlign=middle;resizable=0;points=[];autosize=1;strokeColor=none;fillColor=none;" vertex="1" parent="1">
          <mxGeometry x="760" y="270" width="110" height="30" as="geometry" />
        </mxCell>
        <mxCell id="tNF3bG6NbCHJoMOG7UJe-14" value="系统响应" style="text;html=1;align=center;verticalAlign=middle;resizable=0;points=[];autosize=1;strokeColor=none;fillColor=none;" vertex="1" parent="1">
          <mxGeometry x="770" y="320" width="70" height="30" as="geometry" />
        </mxCell>
        <mxCell id="tNF3bG6NbCHJoMOG7UJe-16" value="工具模块" style="rounded=1;whiteSpace=wrap;html=1;" vertex="1" parent="1">
          <mxGeometry x="640" y="150" width="120" height="60" as="geometry" />
        </mxCell>
        <mxCell id="tNF3bG6NbCHJoMOG7UJe-17" value="异常反馈模块" style="rounded=1;whiteSpace=wrap;html=1;" vertex="1" parent="1">
          <mxGeometry x="640" y="400" width="120" height="60" as="geometry" />
        </mxCell>
        <mxCell id="tNF3bG6NbCHJoMOG7UJe-30" value="提供存储资源" style="text;html=1;strokeColor=none;fillColor=none;align=center;verticalAlign=middle;whiteSpace=wrap;rounded=0;" vertex="1" parent="1">
          <mxGeometry x="354" y="240" width="76" height="30" as="geometry" />
        </mxCell>
        <mxCell id="tNF3bG6NbCHJoMOG7UJe-31" value="提供通信资源" style="text;html=1;strokeColor=none;fillColor=none;align=center;verticalAlign=middle;whiteSpace=wrap;rounded=0;" vertex="1" parent="1">
          <mxGeometry x="350" y="365" width="80" height="30" as="geometry" />
        </mxCell>
        <mxCell id="tNF3bG6NbCHJoMOG7UJe-33" value="多线程执行" style="text;html=1;strokeColor=none;fillColor=none;align=center;verticalAlign=middle;whiteSpace=wrap;rounded=0;" vertex="1" parent="1">
          <mxGeometry x="590" y="260" width="60" height="30" as="geometry" />
        </mxCell>
        <mxCell id="tNF3bG6NbCHJoMOG7UJe-34" value="" style="endArrow=classic;html=1;rounded=0;exitX=1;exitY=0.5;exitDx=0;exitDy=0;entryX=0;entryY=0.5;entryDx=0;entryDy=0;" edge="1" parent="1" source="tNF3bG6NbCHJoMOG7UJe-5" target="tNF3bG6NbCHJoMOG7UJe-9">
          <mxGeometry width="50" height="50" relative="1" as="geometry">
            <mxPoint x="600" y="350" as="sourcePoint" />
            <mxPoint x="650" y="300" as="targetPoint" />
          </mxGeometry>
        </mxCell>
        <mxCell id="tNF3bG6NbCHJoMOG7UJe-35" value="结果回调" style="text;html=1;strokeColor=none;fillColor=none;align=center;verticalAlign=middle;whiteSpace=wrap;rounded=0;" vertex="1" parent="1">
          <mxGeometry x="590" y="310" width="60" height="30" as="geometry" />
        </mxCell>
        <mxCell id="tNF3bG6NbCHJoMOG7UJe-37" value="提供底层存储API" style="text;html=1;strokeColor=none;fillColor=none;align=center;verticalAlign=middle;whiteSpace=wrap;rounded=0;" vertex="1" parent="1">
          <mxGeometry x="60" y="200" width="60" height="30" as="geometry" />
        </mxCell>
        <mxCell id="tNF3bG6NbCHJoMOG7UJe-39" value="服务进程" style="text;html=1;strokeColor=none;fillColor=none;align=center;verticalAlign=middle;whiteSpace=wrap;rounded=0;" vertex="1" parent="1">
          <mxGeometry x="370" y="80" width="60" height="30" as="geometry" />
        </mxCell>
      </root>
    </mxGraphModel>
  </diagram>
</mxfile>
